<svg width="1200" height="800" viewBox="0 0 1200 800" xmlns="http://www.w3.org/2000/svg">
  <defs>
    <linearGradient id="bg" x1="0" y1="0" x2="1" y2="1">
      <stop offset="0%" stop-color="#080806" />
      <stop offset="100%" stop-color="#0f243f" />
    </linearGradient>
    <linearGradient id="highlight" x1="0" y1="0" x2="1" y2="1">
      <stop offset="0%" stop-color="#5bf2d5" />
      <stop offset="100%" stop-color="#8f6cff" />
    </linearGradient>
  </defs>
  <rect width="1200" height="800" rx="40" fill="url(#bg)" />
  <rect x="90" y="118" width="420" height="86" rx="24" fill="#10223a" opacity="0.88" />
  <rect x="90" y="238" width="220" height="38" rx="18" fill="#10223a" />
  <rect x="90" y="298" width="300" height="38" rx="18" fill="#10223a" />
  <rect x="90" y="358" width="210" height="38" rx="18" fill="#10223a" />
  <path d="M560 190h420v440c0 22-18 40-40 40H580" fill="#122546" opacity="0.87" />
  <path d="M550 260h92v60H550z" fill="#1f3460" />
  <circle cx="640" cy="360" r="14" fill="#5bf2d5" />
  <circle cx="745" cy="320" r="14" fill="#8f6cff" />
  <circle cx="860" cy="420" r="14" fill="#5bf2d5" />
  <path d="M650 460c34-48 60-74 118-100" stroke="#5bf2d5" stroke-width="16" fill="none" stroke-linecap="round" />
  <path d="M768 344c35 26 55 73 76 102" stroke="#8f6cff" stroke-width="16" fill="none" stroke-linecap="round" />
  <rect x="145" y="512" width="420" height="230" rx="36" fill="#0d1629" opacity="0.94" />
  <path d="M180 560h340v16H180z" fill="#1e2d4b" />
  <path d="M180 612h260v16H180z" fill="#1e2d4b" />
  <path d="M180 660h200v16H180z" fill="#1e2d4b" />
  <path d="M180 708h320v16H180z" fill="#1e2d4b" />
  <text x="144" y="500" fill="#f4f1ea" font-family="Inter, Arial, sans-serif" font-size="48" font-weight="800">UniVizr</text>
  <text x="144" y="558" fill="#a5b8d3" font-family="Inter, Arial, sans-serif" font-size="24">Degree progress, planning, and career mapping</text>
  <rect x="850" y="582" width="190" height="190" rx="32" fill="#161f36" />
  <path d="M880 640l32-28 28 34 42-50" stroke="url(#highlight)" stroke-width="14" fill="none" stroke-linecap="round" />
  <circle cx="920" cy="590" r="16" fill="#5bf2d5" />
  <circle cx="980" cy="670" r="16" fill="#8f6cff" />
</svg>